HIERARCHY
ROOT Hips
{
  OFFSET 41.7899 108.186 -351.665
  CHANNELS 6 Xposition Yposition Zposition Zrotation Xrotation Yrotation
  JOINT ToSpine
  {
    OFFSET -2.69724 7.43032 -0.144315
    CHANNELS 3 Zrotation Xrotation Yrotation
    JOINT Spine
    {
      OFFSET -0.0310711 10.7595 1.96963
      CHANNELS 3 Zrotation Xrotation Yrotation
      JOINT Spine1
      {
        OFFSET 19.9056 3.91189 0.764692
        CHANNELS 3 Zrotation Xrotation Yrotation
        JOINT Neck
        {
          OFFSET 25.9749 7.03908 -0.130764
          CHANNELS 3 Zrotation Xrotation Yrotation
          JOINT Head
          {
            OFFSET 9.52751 0.295786 -0.907742
            CHANNELS 3 Zrotation Xrotation Yrotation
            End Site
            {
              OFFSET 16.4037 0.713936 2.7358
            }
          }
        }
        JOINT LeftShoulder
        {
          OFFSET 17.7449 4.33886 11.7777
          CHANNELS 3 Zrotation Xrotation Yrotation
          JOINT LeftArm
          {
            OFFSET 0.911315 1.27913 9.80584
            CHANNELS 3 Zrotation Xrotation Yrotation
            JOINT LeftForeArm
            {
              OFFSET 28.6126 1.18197 -3.53199
              CHANNELS 3 Zrotation Xrotation Yrotation
              JOINT LeftHand
              {
                OFFSET 27.5088 0.0218783 0.327423
                CHANNELS 3 Zrotation Xrotation Yrotation
                End Site
                {
                  OFFSET 18.6038 -0.000155887 0.382096
                }
              }
            }
          }
        }
        JOINT RightShoulder
        {
          OFFSET 17.1009 2.89543 -12.2328
          CHANNELS 3 Zrotation Xrotation Yrotation
          JOINT RightArm
          {
            OFFSET 1.4228 0.178766 -10.211
            CHANNELS 3 Zrotation Xrotation Yrotation
            JOINT RightForeArm
            {
              OFFSET 28.733 1.87905 2.64907
              CHANNELS 3 Zrotation Xrotation Yrotation
              JOINT RightHand
              {
                OFFSET 27.4588 0.290562 -0.101845
                CHANNELS 3 Zrotation Xrotation Yrotation
                End Site
                {
                  OFFSET 17.8396 -0.255518 -0.000602873
                }
              }
            }
          }
        }
      }
    }
  }
  JOINT LeftUpLeg
  {
    OFFSET -5.61296 -2.22332 -10.2353
    CHANNELS 3 Zrotation Xrotation Yrotation
    JOINT LeftLeg
    {
      OFFSET 2.56703 -44.7417 -7.93097
      CHANNELS 3 Zrotation Xrotation Yrotation
      JOINT LeftFoot
      {
        OFFSET 3.16933 -46.5642 -3.96578
        CHANNELS 3 Zrotation Xrotation Yrotation
        JOINT LeftToeBase
        {
          OFFSET 0.346054 -6.02161 12.8035
          CHANNELS 3 Zrotation Xrotation Yrotation
          End Site
          {
            OFFSET 0.134235 -1.35082 5.13018
          }
        }
      }
    }
  }
  JOINT RightUpLeg
  {
    OFFSET -5.7928 -1.72406 10.6446
    CHANNELS 3 Zrotation Xrotation Yrotation
    JOINT RightLeg
    {
      OFFSET -2.57161 -44.7178 -7.85259
      CHANNELS 3 Zrotation Xrotation Yrotation
      JOINT RightFoot
      {
        OFFSET -3.10148 -46.5936 -4.03391
        CHANNELS 3 Zrotation Xrotation Yrotation
        JOINT RightToeBase
        {
          OFFSET -0.0828122 -6.13587 12.8035
          CHANNELS 3 Zrotation Xrotation Yrotation
          End Site
          {
            OFFSET -0.131328 -1.35082 5.13018
          }
        }
      }
    }
  }
}
MOTION
Frames:	19
Frame Time:	0.0333333
55.8023 103.021 -38.404 -52.1554 -69.9556 -146.997 -70.1915 0 88.8779 90.9149 72.1878 -9.34253 5.95463 21.0041 2.17436 -131.375 29.2561 159.384 -163.524 71.809 -176.096 2.16897 -5.15196 -36.2734 -108.429 38.912 -80.4138 -14.354 50.2425 11.7439 -2.13009 -0.0348466 4.5449 0.467011 -1.50834 44.7796 -77.8098 -38.1632 94.9641 -0.316328 -12.4307 15.8889 12.0376 -0.622946 -6.5936 -48.6143 -3.08648 86.3099 2.54383 28.0982 -6.71283 8.39853 9.30463 -1.13004 -10.3245 -26.8035 4.76666 -57.1788 0.789294 88.0748 6.74814 70.9887 -7.382 -5.29656 6.77766 0.643433 0.202638 -2.76779 -6.19605 
55.5322 103.675 -35.81 -55.9914 -67.7811 -151.223 -70.1915 0 88.8779 93.7406 71.698 -13.5191 4.79054 20.331 3.29797 -131.119 29.2557 160.299 -162.558 71.6002 -176.564 2.12747 -5.31038 -36.1915 -108.366 38.3132 -83.4808 -13.2021 45.274 10.7167 -1.39292 -0.0201415 4.91735 0.638761 -2.03262 45.7635 -78.4804 -37.4551 94.858 -1.25073 -14.5814 14.433 11.2625 -0.563335 -6.41135 -51.0739 -2.18927 89.8304 3.1804 26.6866 -7.59628 8.21364 9.32422 -1.09311 -10.9822 -28.298 4.37982 -51.9887 0.69244 86.9221 9.92017 76.0405 -11.5018 -6.07142 6.198 0.79327 0.0356473 -3.67401 -6.64071 
55.0607 104.22 -33.1793 -57.52 -65.379 -152.621 -70.1915 0 88.8779 92.7744 71.1069 -13.5099 4.19412 19.2586 4.83135 -130.885 28.9821 161.431 -161.52 71.06 -177.279 2.06479 -5.4704 -35.6113 -107.894 38.5792 -86.0696 -12.6697 40.0035 9.87828 7.72587 0.0383054 2.13143 0.495199 -1.57598 45.7156 -77.448 -37.9188 94.5221 -1.24038 -13.7323 14.6871 9.01213 -0.427312 -6.19019 -52.5219 -0.861358 92.2137 3.27332 26.079 -7.69888 8.37993 8.70828 -1.12604 -11.2967 -29.0894 4.37634 -46.9781 1.46161 85.1425 13.6337 78.36 -12.6361 -6.54967 5.2221 0.890679 -0.434743 -5.24303 -5.68112 
54.4903 104.593 -30.7165 -59.1814 -63.6873 -154.211 -70.1915 0 88.8779 93.2609 70.3638 -15.9089 3.44616 17.8268 7.29798 -131.04 28.733 162.965 -162.266 70.5275 -176.194 2.1481 -5.07458 -35.414 -105.849 38.4786 -89.8868 -12.8057 35.6109 9.32171 12.5928 -0.014315 1.51211 0.322399 -1.03185 44.8734 -73.505 -39.0635 95.6189 -0.454513 -11.4502 16.1238 7.82158 -0.367605 -6.20916 -54.276 -0.0909079 93.8552 3.31803 25.7213 -7.53556 8.44805 7.87313 -1.13841 -11.4246 -29.5516 4.64702 -43.2425 1.83304 82.6617 14.4484 78.0645 -10.3284 -6.74365 4.06196 0.937503 -1.04976 -6.93756 -2.88644 
53.8256 104.853 -28.2467 -60.4918 -62.022 -155.369 -70.1915 0 88.8779 93.8537 69.6166 -17.1017 2.82453 16.8333 8.12915 -130.735 28.2749 162.489 -161.441 70.1602 -176.843 2.12889 -5.05136 -34.8786 -104.437 37.6788 -93.3481 -12.7312 33.5614 8.54983 14.1503 -0.214566 -0.0412163 0.352502 -1.13021 44.901 -69.7246 -39.8494 96.6276 0.428621 -9.23852 17.5903 7.78062 -0.345999 -5.89793 -55.8276 0.728354 95.3258 3.26643 25.6796 -7.20173 8.489 7.09671 -1.14499 -11.7969 -30.4101 4.49981 -40.441 1.85906 79.6517 11.9405 75.2188 -4.77903 -6.6377 3.2714 0.931554 -2.00407 -11.4841 -3.11725 
53.0863 104.933 -25.7692 -61.151 -60.1479 -156.145 -70.1915 0 88.8779 92.6439 69.1233 -16.0942 2.73273 16.1598 8.32229 -130.466 28.1386 162.562 -165.471 70.2492 -172.539 2.10502 -5.03991 -34.3023 -103.369 36.8564 -96.708 -11.5109 33.1111 6.12662 13.6074 -0.132684 0.559176 0.436711 -1.39964 45.207 -68.5627 -40.483 96.31 1.71469 -9.98471 18.5006 6.08129 -0.259112 -5.80468 -56.9027 1.26956 96.609 3.22956 26.0704 -6.63023 8.48832 6.09159 -1.14345 -12.1138 -31.2403 4.56823 -38.3355 1.57669 76.702 8.34475 70.1642 -0.172433 -5.5365 0.124882 0.838748 -1.37044 -7.73573 -0.692677 
52.2873 104.945 -23.1794 -61.823 -57.8869 -157.394 -70.1915 0 88.8779 90.278 69.0047 -13.3182 2.97709 16.0554 7.90123 -131.153 28.2848 162.973 -168.563 70.3353 -170.058 2.12021 -4.97081 -34.3003 -102.033 35.5137 -100.068 -9.26444 32.9737 1.96613 10.8003 0.194182 3.61767 0.509432 -1.63601 45.193 -69.0051 -41.4637 95.2723 2.45309 -10.6586 18.9314 6.7429 -0.315466 -6.268 -58.2888 1.25775 97.6831 3.0626 25.9966 -5.39862 8.39014 5.32955 -1.12609 -12.3837 -32.1906 5.0424 -37.0663 1.25761 74.0809 5.41273 62.6596 3.27024 -6.24755 1.45326 0.903692 -2.69682 -14.6093 -0.8717 
51.3432 104.852 -20.7918 -62.4996 -55.5175 -159.202 -70.1915 0 88.8779 88.6233 68.8721 -11.8802 2.53851 15.9851 7.71014 -131.886 27.8775 163.264 -167.116 69.7771 -171.988 2.24389 -4.33466 -33.9779 -102.107 34.7616 -102.541 -6.998 35.0096 -1.36228 7.00021 0.0865899 2.92582 0.485712 -1.55012 45.5395 -70.6283 -41.9936 93.5792 2.24342 -11.972 18.4023 7.48403 -0.412239 -7.23972 -59.879 0.635466 98.2828 2.61629 25.558 -3.53752 8.1675 4.94274 -1.08968 -12.6834 -33.3009 5.62257 -36.8361 0.802328 71.6334 3.34853 53.1502 4.51868 -6.9498 1.2266 1.00042 -3.11194 -16.5997 -2.44968 
50.1853 104.807 -18.4514 -62.834 -53.6302 -160.308 -70.1915 0 88.8779 86.8992 68.7728 -10.2799 2.2042 15.7795 8.22551 -133.091 27.7825 164.167 -165.675 69.3463 -174.024 2.29389 -4.15549 -34.1816 -99.5948 33.4582 -105.852 -5.57759 31.1879 -5.35883 7.04006 0.106187 3.22354 0.428869 -1.37234 45.2992 -73.8085 -42.621 90.7344 1.5189 -12.6309 17.5775 7.99466 -0.496236 -8.06233 -61.6313 0.162423 98.5626 2.32235 24.748 -2.24691 7.9077 4.89656 -1.04761 -13.0548 -34.4969 6.01414 -37.9889 0.649133 68.1702 2.06705 41.4864 5.13226 -6.62232 0.766711 0.963373 -2.97376 -15.9328 -3.18597 
48.9337 104.866 -16.027 -63.2958 -51.1646 -161.822 -70.1915 0 88.8779 84.5385 69.0025 -7.16419 2.49735 16.1752 7.95222 -134.607 27.8275 165.083 -163.797 69.0038 -176.295 2.37209 -3.84008 -34.3393 -93.7899 31.9796 -110.433 -2.9399 26.6163 -9.91547 6.93039 0.0737142 2.73449 0.439766 -1.41595 44.9085 -78.1278 -42.6195 87.8233 0.185603 -14.6549 15.8481 6.83531 -0.409979 -7.91656 -64.0593 -0.820548 98.472 1.98809 22.6914 -0.418841 7.58546 5.58798 -0.991 -13.3333 -35.8825 6.994 -39.7586 1.39825 68.1875 3.26362 28.3128 0.663317 -6.38633 1.08805 0.928046 -2.63738 -14.3538 -1.91747 
47.4696 104.879 -13.8208 -63.1664 -48.973 -162.705 -70.1915 0 88.8779 82.0874 69.0267 -4.07422 2.6107 16.296 7.91684 -135.644 27.7816 166.645 -164.914 68.6798 -174.822 2.42467 -3.63229 -34.4531 -84.3557 29.1325 -115.665 -0.0652746 17.6655 -14.5684 6.68302 0.0598346 2.54378 0.385945 -1.23759 45.0377 -82.874 -41.954 84.668 -1.76653 -16.7518 13.3772 7.92868 -0.438968 -7.23817 -66.0086 -1.56864 98.3224 1.64966 20.906 0.398444 7.27065 6.36016 -0.931167 -13.463 -37.305 8.45979 -41.1313 4.904 81.4619 4.36858 15.3916 -16.587 -6.37141 -0.878956 0.957231 -1.36848 -7.36085 0.261803 
45.9152 104.657 -11.6501 -62.7947 -47.203 -163.704 -70.1915 0 88.8779 79.662 69.1375 -1.30914 2.5393 16.4971 7.99592 -136.021 27.7535 167.851 -165.178 68.455 -173.295 2.35379 -3.90704 -34.2768 -74.9521 26.4189 -119.657 2.70358 8.57761 -18.7828 7.52496 0.119161 3.31958 0.375842 -1.20743 44.8516 -87.2814 -41.3948 81.7334 -2.90376 -19.7315 11.2734 7.85874 -0.436764 -7.26993 -67.3841 -2.71468 97.9731 1.40318 20.1924 0.645735 7.1467 6.90477 -0.904067 -13.5101 -38.9272 10.3133 -40.1481 5.17016 83.2048 2.1039 11.0739 -19.1356 -7.93812 -0.919018 1.13622 -1.8342 -10.3976 -1.70775 
44.1983 104.376 -9.46052 -63.1258 -46.3008 -164.621 -70.1915 0 88.8779 80.348 68.9483 -1.0687 2.75027 16.4351 7.58523 -137.205 27.6052 168.538 -164.431 68.099 -174.35 2.36441 -3.88047 -34.3613 -71.2893 25.3018 -121.208 4.59059 5.81111 -22.4467 9.48642 0.0968861 2.73998 0.382445 -1.22584 45.0587 -91.12 -40.2395 79.769 -4.15489 -22.9166 8.71373 7.95594 -0.451242 -7.40349 -68.474 -3.24123 97.7576 1.4326 21.4293 -0.163631 6.38963 7.13553 -0.76452 -13.7077 -40.543 11.5134 -40.0791 5.30544 84.0325 0.656752 9.54068 -21.5171 -6.47538 -0.602739 0.96497 -2.18147 -12.3867 -3.77022 
42.3845 103.914 -7.09026 -63.6595 -45.6926 -165.332 -70.1915 0 88.8779 82.3358 68.6467 -1.41246 2.86006 16.2395 7.26381 -138.538 27.7012 170.042 -165.816 67.9753 -172.982 2.46222 -3.67557 -35.2594 -71.7459 26.092 -120.841 6.37966 8.72753 -25.6208 9.81167 0.0315436 1.9708 0.348696 -1.1213 44.6145 -94.3649 -39.3427 78.2019 -5.14789 -24.367 6.48415 8.16205 -0.475631 -7.57972 -68.9639 -3.66769 96.5944 1.44526 24.3553 0.125179 5.8537 6.56814 -0.679276 -14.078 -41.8867 11.8122 -39.5378 4.94433 83.7794 0.495193 12.8986 -21.3037 -5.83764 -0.195803 0.882298 -1.93801 -10.9338 -1.81904 
40.294 103.592 -4.71369 -64.758 -45.1863 -165.515 -70.1915 0 88.8779 85.0417 68.3226 -1.53727 3.63879 16.0773 6.93182 -139.861 28.0378 171.192 -166.492 68.1343 -172.386 2.48908 -3.7442 -35.9934 -70.8893 27.1429 -120.437 7.96394 10.6269 -28.569 9.86719 0.0658506 2.35396 0.329148 -1.05936 44.3589 -94.9528 -38.5786 77.9647 -5.51756 -24.3652 5.71134 8.53743 -0.512211 -7.76395 -69.3172 -3.27799 93.6221 0.630213 28.4032 2.87511 5.42579 6.85762 -0.596609 -15.1106 -43.6358 10.6234 -38.9634 4.26794 81.9599 1.96342 17.7915 -23.3938 -4.98983 2.60635 0.702972 -1.44798 -9.20537 -4.29517 
37.8115 103.537 -2.46507 -65.9017 -43.946 -164.787 -70.1915 0 88.8779 87.5672 68.3174 -0.565569 4.34629 16.2805 6.88199 -139.2 28.1327 170.747 -163.46 68.1708 -174.815 2.51539 -3.79972 -36.6765 -69.3791 28.7002 -120.317 11.3129 15.854 -30.1233 6.80639 -0.0336569 1.03022 0.334763 -1.07476 44.6574 -95.0846 -37.161 77.6093 -5.44282 -23.7144 5.91137 8.80878 -0.536711 -7.85942 -68.2789 -1.64552 90.8663 -0.532848 34.6522 6.18568 4.36028 7.97614 -0.368142 -15.7515 -44.265 9.4917 -39.2908 5.55522 80.6669 2.98316 21.4936 -22.5073 -4.24237 0.456521 0.668364 0.0695176 -0.938689 -1.91058 
35.2247 103.285 -0.3345 -66.2241 -41.9485 -164.036 -70.1915 0 88.8779 88.848 68.6861 1.17055 4.22076 16.7877 7.2692 -139.093 28.2372 171 -163.719 68.2281 -175.755 2.57949 -3.5831 -36.8708 -66.6955 31.0009 -120.433 14.0985 20.2294 -30.9751 5.26337 -0.0508998 0.485833 0.402753 -1.30515 44.3332 -95.2063 -36.2603 77.5036 -5.56658 -22.708 5.87261 10.6134 -0.609442 -7.33188 -64.2121 1.18082 92.7769 -0.852836 43.8155 7.34905 0.968857 9.30275 0.355286 -16.4027 -40.4007 3.01641 -39.0421 7.18768 79.7769 3.65707 25.1354 -21.1545 -4.02479 -1.83858 0.723796 0.743551 2.45624 -1.95121 
32.5314 103.196 1.67222 -67.2559 -39.4634 -165.247 -70.1915 0 88.8779 90.2139 69.3614 1.24813 3.902 17.6843 7.13676 -138.81 27.7808 169.84 -160.028 67.6591 179.801 2.57479 -3.40559 -36.0885 -62.5938 32.9648 -120.934 14.2929 20.8607 -30.6372 3.76756 -0.0600573 -0.222144 0.380846 -1.24101 43.7874 -96.0138 -36.1581 77.2053 -4.90146 -22.5548 6.7822 10.9332 -0.696098 -8.07195 -60.2353 2.51952 93.9652 -1.28935 51.8788 8.92443 2.98729 13.1674 0.126117 -12.7619 -29.0548 -2.77607 -39.7712 7.65304 78.543 4.3027 28.209 -17.7433 -4.57489 -3.60503 0.837741 1.00545 1.52947 -4.83895 
29.9686 103.023 3.57962 -68.4597 -37.8254 -166.009 -70.1915 0 88.8779 92.9345 69.7234 0.153427 4.20873 18.3002 6.65144 -139.447 27.879 169.14 -160.54 67.8824 -179.899 2.47012 -4.03184 -36.8741 -60.0825 33.2884 -120.083 14.8783 21.6286 -30.9921 1.78262 -0.0191823 0.16622 0.519945 -1.71542 43.7146 -95.329 -35.8984 78.809 -4.11786 -20.5613 8.56843 12.6027 -0.834838 -8.31062 -55.8521 2.28799 91.3663 -2.08005 59.9374 10.6782 3.72741 14.2359 -0.0045768 -12.4405 -29.4923 -0.310245 -41.1059 7.92208 76.9368 4.83293 30.8218 -14.8793 -5.18155 -5.23435 0.9357 1.0683 0.965535 -6.09543 
